<?xml version="1.0" encoding="UTF-8"?><svg id="Layer_1" xmlns="http://www.w3.org/2000/svg" viewBox="0 0 51.2 44.8"><defs><style>.cls-1{fill:#fff;}</style></defs><path d="M25.6,0C11.46,0,0,9.31,0,20.8c0,4.96,2.14,9.5,5.7,13.07C4.45,38.91,.27,43.4,.22,43.45c-.22,.23-.28,.57-.15,.87s.41,.48,.73,.48c6.63,0,11.6-3.18,14.06-5.14,3.27,1.23,6.9,1.94,10.74,1.94,14.14,0,25.6-9.31,25.6-20.8S39.74,0,25.6,0Z"/><path class="cls-1" d="M22.51,8.68c-.38-.93-1.4-1.43-2.37-1.16l-4.4,1.2c-.87,.24-1.47,1.03-1.47,1.93,0,12.37,10.03,22.4,22.4,22.4,.9,0,1.69-.61,1.93-1.48l1.2-4.4c.27-.97-.23-1.99-1.16-2.37l-4.8-2c-.81-.34-1.76-.11-2.31,.58l-2.02,2.46c-3.52-1.66-6.37-4.51-8.04-8.03l2.47-2.02c.68-.56,.92-1.5,.58-2.32l-2-4.8h0Z"/></svg>