<?xml version="1.0" encoding="utf-8"?>
<!-- Generator: Adobe Illustrator 26.3.1, SVG Export Plug-In . SVG Version: 6.00 Build 0)  -->
<svg version="1.1" id="Layer_1" xmlns="http://www.w3.org/2000/svg" xmlns:xlink="http://www.w3.org/1999/xlink" x="0px" y="0px"
	 viewBox="0 0 224 512" style="enable-background:new 0 0 224 512;" xml:space="preserve">
<path d="M224,64c0-17.7-14.3-32-32-32H32C14.3,32,0,46.3,0,64s14.3,32,32,32h160C209.7,96,224,81.7,224,64z M224,192
	c0-17.7-14.3-32-32-32H32c-17.7,0-32,14.3-32,32s14.3,32,32,32h160C209.7,224,224,209.7,224,192z M0,320c0,17.7,14.3,32,32,32h160
	c17.7,0,32-14.3,32-32s-14.3-32-32-32H32C14.3,288,0,302.3,0,320z M224,448c0-17.7-14.3-32-32-32H32c-17.7,0-32,14.3-32,32
	s14.3,32,32,32h160C209.7,480,224,465.7,224,448z"/>
</svg>
