<?xml version="1.0" encoding="utf-8"?>
<!-- Generator: Adobe Illustrator 26.3.1, SVG Export Plug-In . SVG Version: 6.00 Build 0)  -->
<svg version="1.1" id="Layer_1" xmlns="http://www.w3.org/2000/svg" xmlns:xlink="http://www.w3.org/1999/xlink" x="0px" y="0px"
	 viewBox="0 0 640 512" style="enable-background:new 0 0 640 512;" xml:space="preserve">
<path d="M176,512c-31.8,0-57.6-22.9-57.6-51.2V51.2C118.4,23,144.2,0,176,0l288,0c31.8,0,57.6,23,57.6,51.2v409.6
	c0,28.3-25.8,51.2-57.6,51.2H176z M478.4,153.6V51.2c0-7-6.5-12.8-14.4-12.8H176c-8,0-14.4,5.8-14.4,12.8v102.4H478.4z M161.6,192
	v128h316.8V192H161.6z M478.4,358.4H161.6v102.4c0,7.1,6.4,12.8,14.4,12.8h288c7.9,0,14.4-5.7,14.4-12.8V358.4z"/>
</svg>
