<?xml version="1.0" encoding="UTF-8"?><svg id="Layer_1" xmlns="http://www.w3.org/2000/svg" viewBox="0 0 35.89 28.71"><defs><style>.cls-1{fill:#010101;}.cls-2{fill:#fff;}.cls-3{fill:#231f20;}</style></defs><path class="cls-1" d="M2.69,0C1.21,0,0,1.21,0,2.69V20.64c0,1.49,1.21,2.69,2.69,2.69h.9c0,2.97,2.41,5.38,5.38,5.38s5.38-2.41,5.38-5.38h7.18c0,2.97,2.41,5.38,5.38,5.38s5.38-2.41,5.38-5.38h1.79c.99,0,1.79-.8,1.79-1.79s-.8-1.79-1.79-1.79v-6.43c0-.95-.38-1.87-1.05-2.54l-4.33-4.33c-.67-.67-1.59-1.05-2.54-1.05h-2.84V2.69c0-1.49-1.21-2.69-2.69-2.69H2.69ZM23.33,8.97h2.84l4.33,4.33v1.05h-7.18v-5.38Zm-11.66,14.36c0,1.49-1.21,2.69-2.69,2.69s-2.69-1.21-2.69-2.69,1.21-2.69,2.69-2.69,2.69,1.21,2.69,2.69Zm15.25,2.69c-1.49,0-2.69-1.21-2.69-2.69s1.21-2.69,2.69-2.69,2.69,1.21,2.69,2.69-1.21,2.69-2.69,2.69Z"/><path class="cls-3" d="M2.69,0C1.21,0,0,1.21,0,2.69V20.64c0,1.49,1.21,2.69,2.69,2.69h.9c0,2.97,2.41,5.38,5.38,5.38s5.38-2.41,5.38-5.38h7.18c0,2.97,2.41,5.38,5.38,5.38s5.38-2.41,5.38-5.38h1.79c.99,0,1.79-.8,1.79-1.79s-.8-1.79-1.79-1.79v-6.43c0-.95-.38-1.87-1.05-2.54l-4.33-4.33c-.67-.67-1.59-1.05-2.54-1.05h-2.84V2.69c0-1.49-1.21-2.69-2.69-2.69H2.69ZM23.33,8.97h2.84l4.33,4.33v1.05h-7.18v-5.38Zm-11.66,14.36c0,1.49-1.21,2.69-2.69,2.69s-2.69-1.21-2.69-2.69,1.21-2.69,2.69-2.69,2.69,1.21,2.69,2.69Zm15.25,2.69c-1.49,0-2.69-1.21-2.69-2.69s1.21-2.69,2.69-2.69,2.69,1.21,2.69,2.69-1.21,2.69-2.69,2.69Z"/><path class="cls-2" d="M5.83,11.56v-2.5c0-.35,.28-.62,.62-.62h5.21v-2.7c0-.56,.67-.84,1.07-.44l4.58,4.58c.24,.24,.24,.64,0,.89l-4.58,4.57c-.39,.39-1.07,.11-1.07-.44v-2.7H6.46c-.35,0-.62-.28-.62-.62Z"/></svg>