<?xml version="1.0" encoding="UTF-8"?><svg id="Layer_1" xmlns="http://www.w3.org/2000/svg" viewBox="0 0 32 28.74"><defs><style>.cls-1{fill:#fff;}.cls-2{fill:#231f20;}</style></defs><path class="cls-2" d="M1.2,28.74c-.66,0-1.2-.6-1.2-1.35V9.8c0-1.65,.89-3.14,2.25-3.76L14.91,.23c.72-.31,1.47-.31,2.14,0l12.7,5.81c1.36,.62,2.25,2.11,2.25,3.76V27.39c0,.75-.54,1.35-1.2,1.35H1.2Z"/><path class="cls-1" d="M10.06,17.11v-2.5c0-.35,.28-.62,.62-.62h5.21v-2.7c0-.56,.67-.84,1.07-.44l4.58,4.58c.24,.24,.24,.64,0,.89l-4.58,4.57c-.39,.39-1.07,.11-1.07-.44v-2.7h-5.21c-.35,0-.62-.28-.62-.62Z"/></svg>